<?xml version="1.0" encoding="UTF-8" standalone="no"?>
<!-- Uploaded to: SVG Repo, www.svgrepo.com, Generator: SVG Repo Mixer Tools -->

<svg
   height="623.31781"
   width="800"
   version="1.1"
   id="Layer_1"
   viewBox="0 0 512.001 398.92418"
   xml:space="preserve"
   sodipodi:docname="ant.svg"
   inkscape:version="1.4.2 (ebf0e940d0, 2025-05-08)"
   xmlns:inkscape="http://www.inkscape.org/namespaces/inkscape"
   xmlns:sodipodi="http://sodipodi.sourceforge.net/DTD/sodipodi-0.dtd"
   xmlns="http://www.w3.org/2000/svg"
   xmlns:svg="http://www.w3.org/2000/svg"><defs
   id="defs11" /><sodipodi:namedview
   id="namedview11"
   pagecolor="#ffffff"
   bordercolor="#000000"
   borderopacity="0.25"
   inkscape:showpageshadow="2"
   inkscape:pageopacity="0.0"
   inkscape:pagecheckerboard="0"
   inkscape:deskcolor="#d1d1d1"
   inkscape:zoom="0.50472808"
   inkscape:cx="126.80095"
   inkscape:cy="434.88763"
   inkscape:window-width="1920"
   inkscape:window-height="1014"
   inkscape:window-x="0"
   inkscape:window-y="0"
   inkscape:window-maximized="1"
   inkscape:current-layer="Layer_1" />
<g
   id="g3"
   style="display:inline"
   transform="translate(0,-56.538816)">
	<path
   style="fill:#d8cba5;fill-opacity:1"
   d="m 66.544,455.461 v -35.502 c 20.009,0 36.287,-16.279 36.287,-36.286 V 307.88 h 35.502 v 75.794 c 0,39.584 -32.203,71.787 -71.789,71.787 z"
   id="path1" />
	<path
   style="fill:#d8cba5;fill-opacity:1"
   d="m 167.603,455.461 v -35.502 c 20.008,0 36.286,-16.279 36.286,-36.286 V 307.88 h 35.502 v 75.794 c 0,39.584 -32.203,71.787 -71.788,71.787 z"
   id="path2" />
	<path
   style="fill:#d8cba5;fill-opacity:1"
   d="m 384.303,195.601 -20.849,-28.734 48.282,-35.033 c 15.47,-11.223 34.446,-15.745 53.425,-12.726 18.979,3.019 35.614,13.202 46.84,28.673 l -28.735,20.849 c -5.657,-7.797 -14.068,-12.933 -23.682,-14.463 -9.614,-1.53 -19.202,0.746 -26.998,6.402 z"
   id="path3" />
</g>
<g
   id="g5"
   style="display:inline"
   transform="translate(0,-56.538816)">
	<path
   style="fill:#f3e5c2;fill-opacity:1"
   d="M 184.748,230.261 C 164.84,215.66 138.563,207.62 110.758,207.62 c -27.805,0 -54.082,8.04 -73.99,22.641 -21.013,15.41 -32.586,36.245 -32.586,58.67 0,22.425 11.572,43.261 32.585,58.67 19.908,14.601 46.185,22.641 73.99,22.641 27.805,0 54.082,-8.04 73.99,-22.641 21.012,-15.409 32.585,-36.245 32.585,-58.67 0,-22.425 -11.572,-43.26 -32.584,-58.67 z"
   id="path4" />
	<path
   style="fill:#f3e5c2;fill-opacity:1"
   d="m 249.713,220.252 c -30.904,0 -56.046,25.142 -56.046,56.046 0,30.904 25.142,56.046 56.046,56.046 30.903,0 56.045,-25.142 56.045,-56.046 0,-30.904 -25.142,-56.046 -56.045,-56.046 z"
   id="path5" />
</g>
<path
   style="display:inline;fill:#d8cba5;fill-opacity:1"
   d="m 311.675,327.13418 v -112.891 c 0,0 -32.922,-50.528 -61.962,-50.528 v 112.094 c 9.564,0 18.574,-2.414 26.461,-6.655 v 57.982 c 0,39.584 32.205,71.788 71.789,71.788 v -35.502 c -20.009,-0.002 -36.288,-16.28 -36.288,-36.288 z"
   id="path6" />
<g
   id="g8"
   style="display:inline"
   transform="translate(0,-56.538816)">
	<path
   style="display:inline;fill:#f3e5c2;fill-opacity:1"
   d="m 428.917,249.952 c 0,0 -78.172,33.664 -107.925,23.648 -29.755,-10.016 -45.755,-42.256 -35.738,-72.01 10.017,-29.754 42.255,-45.755 72.01,-35.738 29.755,10.017 71.653,84.1 71.653,84.1 z"
   id="path7" />
	<path
   style="fill:#f3e5c2;fill-opacity:1"
   d="m 334.428,287.188 c -6.427,0 -12.281,-0.714 -17.211,-2.373 -17.385,-5.852 -31.452,-18.125 -39.608,-34.558 -8.156,-16.433 -9.423,-35.057 -3.571,-52.442 5.852,-17.386 18.125,-31.452 34.558,-39.608 16.433,-8.156 35.057,-9.424 52.442,-3.571 33.092,11.14 73.662,81.503 78.179,89.49 l 6.492,11.479 -12.112,5.215 c -7.17,3.088 -62.459,26.368 -99.169,26.368 z m 4.658,-112.496 c -6.848,0 -13.655,1.581 -19.968,4.715 -10.77,5.345 -18.812,14.564 -22.649,25.959 -3.837,11.395 -3.005,23.6 2.341,34.37 5.345,10.77 14.564,18.812 25.959,22.649 16.089,5.414 57.584,-6.827 86.979,-18.21 -16.54,-26.849 -42.194,-61.699 -58.258,-67.108 -4.717,-1.587 -9.571,-2.375 -14.404,-2.375 z"
   id="path8" />
</g>
<path
   style="fill:#9aaa65;fill-opacity:1"
   d="m 384.293,73.621184 c -26.185,-37.678 -65.521,-62.864 -110.762,-70.9220005 -44.992,-8.013 -90.304,1.953 -127.588,28.0580005 l -105.642,73.416996 10.282,14.603 c 26.126,37.103 65.327,62.038 110.379,70.214 10.462,1.898 20.934,2.837 31.314,2.837 34.478,0 67.928,-10.352 96.551,-30.246 L 394.421,88.195184 Z"
   id="path9" />
<path
   style="fill:#4f5d2f;fill-opacity:1"
   d="M 141.363,126.54918 H 0 V 91.047184 h 141.363 c 28.429,0 47.699,-9.635 89.919,-30.743 l 15.886,31.75 C 202.677,114.29718 178.173,126.54918 141.363,126.54918 Z"
   id="path10" />
<path
   style="fill:#656f4e;fill-opacity:1"
   d="m 384.293,73.621184 c -26.185,-37.678 -65.521,-62.864 -110.762,-70.9220005 -7.946,-1.414 -15.901,-2.25799998 -23.82,-2.56099998 V 181.80618 c 13.724,-4.956 26.865,-11.708 39.118,-20.223 L 394.423,88.196184 Z"
   id="path11" />
</svg>
